<svg xmlns="http://www.w3.org/2000/svg">
  <symbol id="diskette" stroke="currentColor" fill="currentColor" viewBox="0 0 29 28">
      <rect x="0.5" width="2.15385" height="2.15385" fill="black"/>
      <rect x="0.5" y="2.15381" width="2.15385" height="2.15385" fill="black"/>
      <rect x="0.5" y="4.30762" width="2.15385" height="2.15385" fill="black"/>
      <rect x="0.5" y="6.46143" width="2.15385" height="2.15385" fill="black"/>
      <rect x="0.5" y="8.61523" width="2.15385" height="2.15385" fill="black"/>
      <rect x="0.5" y="10.769" width="2.15385" height="2.15385" fill="black"/>
      <rect x="0.5" y="12.9233" width="2.15385" height="2.15385" fill="black"/>
      <rect x="0.5" y="15.0767" width="2.15385" height="2.15385" fill="black"/>
      <rect x="0.5" y="17.231" width="2.15385" height="2.15385" fill="black"/>
      <rect x="0.5" y="19.3848" width="2.15385" height="2.15385" fill="black"/>
      <rect x="0.5" y="21.5386" width="2.15385" height="2.15385" fill="black"/>
      <rect x="0.5" y="23.6924" width="2.15385" height="2.15385" fill="black"/>
      <rect x="0.5" y="25.8462" width="2.15385" height="2.15385" fill="black"/>
      <rect x="24.1927" width="2.15385" height="2.15385" transform="rotate(90 24.1927 0)" fill="black"/>
      <rect x="22.0391" width="2.15385" height="2.15385" transform="rotate(90 22.0391 0)" fill="black"/>
      <rect x="19.8841" width="2.15385" height="2.15385" transform="rotate(90 19.8841 0)" fill="black"/>
      <rect x="17.7305" width="2.15385" height="2.15385" transform="rotate(90 17.7305 0)" fill="black"/>
      <rect x="15.5768" width="2.15385" height="2.15385" transform="rotate(90 15.5768 0)" fill="black"/>
      <rect x="13.4232" width="2.15385" height="2.15385" transform="rotate(90 13.4232 0)" fill="black"/>
      <rect x="11.2695" width="2.15385" height="2.15385" transform="rotate(90 11.2695 0)" fill="black"/>
      <rect x="9.11589" width="2.15385" height="2.15385" transform="rotate(90 9.11589 0)" fill="black"/>
      <rect x="6.96094" width="2.15385" height="2.15385" transform="rotate(90 6.96094 0)" fill="black"/>
      <rect x="4.8073" width="2.15385" height="2.15385" transform="rotate(90 4.8073 0)" fill="black"/>
      <rect x="26.3464" y="2.15381" width="2.15385" height="2.15385" transform="rotate(90 26.3464 2.15381)" fill="black"/>
      <rect x="6.96094" y="4.30762" width="2.15385" height="2.15385" transform="rotate(90 6.96094 4.30762)" fill="black"/>
      <rect x="6.96094" y="2.15381" width="2.15385" height="2.15385" transform="rotate(90 6.96094 2.15381)" fill="black"/>
      <rect x="6.96094" y="6.46143" width="2.15385" height="2.15385" transform="rotate(90 6.96094 6.46143)" fill="black"/>
      <rect x="22.0391" y="4.30762" width="2.15385" height="2.15385" transform="rotate(90 22.0391 4.30762)" fill="black"/>
      <rect x="22.0391" y="2.15381" width="2.15385" height="2.15385" transform="rotate(90 22.0391 2.15381)" fill="black"/>
      <rect x="22.0391" y="6.46143" width="2.15385" height="2.15385" transform="rotate(90 22.0391 6.46143)" fill="black"/>
      <rect x="17.7305" y="4.30762" width="2.15385" height="2.15385" transform="rotate(90 17.7305 4.30762)" fill="black"/>
      <rect x="17.7305" y="2.15381" width="2.15385" height="2.15385" transform="rotate(90 17.7305 2.15381)" fill="black"/>
      <rect x="17.7305" y="6.46143" width="2.15385" height="2.15385" transform="rotate(90 17.7305 6.46143)" fill="black"/>
      <rect x="22.0391" y="8.61523" width="2.15385" height="2.15385" transform="rotate(90 22.0391 8.61523)" fill="black"/>
      <rect x="19.8841" y="8.61523" width="2.15385" height="2.15385" transform="rotate(90 19.8841 8.61523)" fill="black"/>
      <rect x="17.7305" y="8.61523" width="2.15385" height="2.15385" transform="rotate(90 17.7305 8.61523)" fill="black"/>
      <rect x="15.5768" y="8.61523" width="2.15385" height="2.15385" transform="rotate(90 15.5768 8.61523)" fill="black"/>
      <rect x="13.4232" y="8.61523" width="2.15385" height="2.15385" transform="rotate(90 13.4232 8.61523)" fill="black"/>
      <rect x="11.2695" y="8.61523" width="2.15385" height="2.15385" transform="rotate(90 11.2695 8.61523)" fill="black"/>
      <rect x="9.11589" y="8.61523" width="2.15385" height="2.15385" transform="rotate(90 9.11589 8.61523)" fill="black"/>
      <rect x="6.96094" y="8.61523" width="2.15385" height="2.15385" transform="rotate(90 6.96094 8.61523)" fill="black"/>
      <rect x="24.1927" y="15.0767" width="2.15385" height="2.15385" transform="rotate(90 24.1927 15.0767)" fill="black"/>
      <rect x="22.0391" y="15.0767" width="2.15385" height="2.15385" transform="rotate(90 22.0391 15.0767)" fill="black"/>
      <rect x="19.8841" y="15.0767" width="2.15385" height="2.15385" transform="rotate(90 19.8841 15.0767)" fill="black"/>
      <rect x="17.7305" y="15.0767" width="2.15385" height="2.15385" transform="rotate(90 17.7305 15.0767)" fill="black"/>
      <rect x="15.5768" y="15.0767" width="2.15385" height="2.15385" transform="rotate(90 15.5768 15.0767)" fill="black"/>
      <rect x="13.4232" y="15.0767" width="2.15385" height="2.15385" transform="rotate(90 13.4232 15.0767)" fill="black"/>
      <rect x="11.2695" y="15.0767" width="2.15385" height="2.15385" transform="rotate(90 11.2695 15.0767)" fill="black"/>
      <rect x="9.11589" y="15.0767" width="2.15385" height="2.15385" transform="rotate(90 9.11589 15.0767)" fill="black"/>
      <rect x="6.96094" y="15.0767" width="2.15385" height="2.15385" transform="rotate(90 6.96094 15.0767)" fill="black"/>
      <rect x="24.1927" y="17.231" width="2.15385" height="2.15385" transform="rotate(90 24.1927 17.231)" fill="black"/>
      <rect x="6.96094" y="17.231" width="2.15385" height="2.15385" transform="rotate(90 6.96094 17.231)" fill="black"/>
      <rect x="24.1927" y="19.3848" width="2.15385" height="2.15385" transform="rotate(90 24.1927 19.3848)" fill="black"/>
      <rect x="6.96094" y="19.3848" width="2.15385" height="2.15385" transform="rotate(90 6.96094 19.3848)" fill="black"/>
      <rect x="24.1927" y="21.5386" width="2.15385" height="2.15385" transform="rotate(90 24.1927 21.5386)" fill="black"/>
      <rect x="6.96094" y="21.5386" width="2.15385" height="2.15385" transform="rotate(90 6.96094 21.5386)" fill="black"/>
      <rect x="6.96094" y="23.6924" width="2.15385" height="2.15385" transform="rotate(90 6.96094 23.6924)" fill="black"/>
      <rect x="24.1927" y="23.6924" width="2.15385" height="2.15385" transform="rotate(90 24.1927 23.6924)" fill="black"/>
      <rect x="26.3464" y="25.8462" width="2.15385" height="2.15385" transform="rotate(90 26.3464 25.8462)" fill="black"/>
      <rect x="24.1927" y="25.8462" width="2.15385" height="2.15385" transform="rotate(90 24.1927 25.8462)" fill="black"/>
      <rect x="22.0391" y="25.8462" width="2.15385" height="2.15385" transform="rotate(90 22.0391 25.8462)" fill="black"/>
      <rect x="19.8841" y="25.8462" width="2.15385" height="2.15385" transform="rotate(90 19.8841 25.8462)" fill="black"/>
      <rect x="17.7305" y="25.8462" width="2.15385" height="2.15385" transform="rotate(90 17.7305 25.8462)" fill="black"/>
      <rect x="15.5768" y="25.8462" width="2.15385" height="2.15385" transform="rotate(90 15.5768 25.8462)" fill="black"/>
      <rect x="13.4232" y="25.8462" width="2.15385" height="2.15385" transform="rotate(90 13.4232 25.8462)" fill="black"/>
      <rect x="11.2695" y="25.8462" width="2.15385" height="2.15385" transform="rotate(90 11.2695 25.8462)" fill="black"/>
      <rect x="9.11589" y="25.8462" width="2.15385" height="2.15385" transform="rotate(90 9.11589 25.8462)" fill="black"/>
      <rect x="6.96094" y="25.8462" width="2.15385" height="2.15385" transform="rotate(90 6.96094 25.8462)" fill="black"/>
      <rect x="4.8073" y="25.8462" width="2.15385" height="2.15385" transform="rotate(90 4.8073 25.8462)" fill="black"/>
      <rect x="28.5" y="28" width="2.15385" height="2.15385" transform="rotate(-180 28.5 28)" fill="black"/>
      <rect x="28.5" y="25.8462" width="2.15385" height="2.15385" transform="rotate(-180 28.5 25.8462)" fill="black"/>
      <rect x="28.5" y="23.6924" width="2.15385" height="2.15385" transform="rotate(-180 28.5 23.6924)" fill="black"/>
      <rect x="28.5" y="21.5386" width="2.15385" height="2.15385" transform="rotate(-180 28.5 21.5386)" fill="black"/>
      <rect x="28.5" y="19.3848" width="2.15385" height="2.15385" transform="rotate(-180 28.5 19.3848)" fill="black"/>
      <rect x="28.5" y="17.231" width="2.15385" height="2.15385" transform="rotate(-180 28.5 17.231)" fill="black"/>
      <rect x="28.5" y="15.0767" width="2.15385" height="2.15385" transform="rotate(-180 28.5 15.0767)" fill="black"/>
      <rect x="28.5" y="12.9233" width="2.15385" height="2.15385" transform="rotate(-180 28.5 12.9233)" fill="black"/>
      <rect x="28.5" y="10.769" width="2.15385" height="2.15385" transform="rotate(-180 28.5 10.769)" fill="black"/>
      <rect x="28.5" y="8.61523" width="2.15385" height="2.15385" transform="rotate(-180 28.5 8.61523)" fill="black"/>
      <rect x="28.5" y="6.46143" width="2.15385" height="2.15385" transform="rotate(-180 28.5 6.46143)" fill="black"/>
  </symbol>

  <symbol id="heart" stroke="currentColor" fill="currentColor">
    <g class="heart">
            <path class="contour" d="M12 6H9V9H12V6ZM15 6H12V9H15V6ZM9 9H6V12H9V9ZM9 12H6V15H9V12ZM9 15H6V18H9V15ZM18 6H15V9H18V6ZM12 18H9V21H12V18ZM15 21H12V24H15V21ZM18 24H15V27H18V24ZM27 6H30V9H27V6ZM24 6H27V9H24V6ZM30 9H33V12H30V9ZM30 12H33V15H30V12ZM30 15H33V18H30V15ZM21 6H24V9H21V6ZM27 18H30V21H27V18ZM24 21H27V24H24V21ZM21 24H24V27H21V24ZM21 27H18V30H21V27ZM21 9H18V12H21V9Z" fill="black"/>
            <path class="main-body" d="M12 9H9V12H12V9ZM15 12H12V15H15V12ZM18 9H15V12H18V9ZM12 15H9V18H12V15ZM15 15H12V18H15V15ZM15 18H12V21H15V18ZM18 12H15V15H18V12ZM18 21H15V24H18V21ZM18 18H15V21H18V18ZM27 9H30V12H27V9ZM24 9H27V12H24V9ZM27 12H30V15H27V12ZM24 12H27V15H24V12ZM21 9H24V12H21V9ZM27 15H30V18H27V15ZM24 15H27V18H24V15ZM24 18H27V21H24V18ZM21 12H24V15H21V12ZM21 21H24V24H21V21ZM21 18H24V21H21V18ZM21 21H18V24H21V21ZM21 24H18V27H21V24Z" fill="none"/>
            <path class="core" d="M18 15H15V18H18V15ZM21 15H24V18H21V15ZM21 15H18V18H21V15ZM21 12H18V15H21V12ZM21 18H18V21H21V18Z" fill="orange"/>
        </g>
        <path class="sparks" d="M36 13H39V16H36V13ZM27 27H30V30H27V27ZM18 33H21V36H18V33ZM9 27H12V30H9V27ZM24 0H27V3H24V0ZM33 3H36V6H33V3ZM3 3H6V6H3V3ZM12 0H15V3H12V0ZM0 13H3V16H0V13Z" fill="none"/>
  </symbol>
</svg> 





