<svg xmlns="http://www.w3.org/2000/svg">
  <symbol id="diskette" stroke="currentColor" fill="currentColor">
    <rect width="1.61538" height="1.61538" fill="black"/>
    <rect y="1.61523" width="1.61538" height="1.61538" fill="black"/>
    <rect y="3.23096" width="1.61538" height="1.61538" fill="black"/>
    <rect y="4.84619" width="1.61538" height="1.61538" fill="black"/>
    <rect y="6.46143" width="1.61538" height="1.61538" fill="black"/>
    <rect y="8.07715" width="1.61538" height="1.61538" fill="black"/>
    <rect y="9.69238" width="1.61538" height="1.61538" fill="black"/>
    <rect y="11.3076" width="1.61538" height="1.61538" fill="black"/>
    <rect y="12.9229" width="1.61538" height="1.61538" fill="black"/>
    <rect y="14.5386" width="1.61538" height="1.61538" fill="black"/>
    <rect y="16.1538" width="1.61538" height="1.61538" fill="black"/>
    <rect y="17.769" width="1.61538" height="1.61538" fill="black"/>
    <rect y="19.3848" width="1.61538" height="1.61538" fill="black"/>
    <rect x="17.7692" width="1.61538" height="1.61538" transform="rotate(90 17.7692 0)" fill="black"/>
    <rect x="16.1539" width="1.61538" height="1.61538" transform="rotate(90 16.1539 0)" fill="black"/>
    <rect x="14.5385" width="1.61538" height="1.61538" transform="rotate(90 14.5385 0)" fill="black"/>
    <rect x="12.9231" width="1.61538" height="1.61538" transform="rotate(90 12.9231 0)" fill="black"/>
    <rect x="11.3077" width="1.61538" height="1.61538" transform="rotate(90 11.3077 0)" fill="black"/>
    <rect x="9.69232" width="1.61538" height="1.61538" transform="rotate(90 9.69232 0)" fill="black"/>
    <rect x="8.0769" width="1.61538" height="1.61538" transform="rotate(90 8.0769 0)" fill="black"/>
    <rect x="6.46155" width="1.61538" height="1.61538" transform="rotate(90 6.46155 0)" fill="black"/>
    <rect x="4.84613" width="1.61538" height="1.61538" transform="rotate(90 4.84613 0)" fill="black"/>
    <rect x="3.23077" width="1.61538" height="1.61538" transform="rotate(90 3.23077 0)" fill="black"/>
    <rect x="19.3846" y="1.61523" width="1.61538" height="1.61538" transform="rotate(90 19.3846 1.61523)" fill="black"/>
    <rect x="4.84613" y="3.23096" width="1.61538" height="1.61538" transform="rotate(90 4.84613 3.23096)" fill="black"/>
    <rect x="4.84613" y="1.61523" width="1.61538" height="1.61538" transform="rotate(90 4.84613 1.61523)" fill="black"/>
    <rect x="4.84613" y="4.84619" width="1.61538" height="1.61538" transform="rotate(90 4.84613 4.84619)" fill="black"/>
    <rect x="16.1539" y="3.23096" width="1.61538" height="1.61538" transform="rotate(90 16.1539 3.23096)" fill="black"/>
    <rect x="16.1539" y="1.61523" width="1.61538" height="1.61538" transform="rotate(90 16.1539 1.61523)" fill="black"/>
    <rect x="16.1539" y="4.84619" width="1.61538" height="1.61538" transform="rotate(90 16.1539 4.84619)" fill="black"/>
    <rect x="12.9231" y="3.23096" width="1.61538" height="1.61538" transform="rotate(90 12.9231 3.23096)" fill="black"/>
    <rect x="12.9231" y="1.61523" width="1.61538" height="1.61538" transform="rotate(90 12.9231 1.61523)" fill="black"/>
    <rect x="12.9231" y="4.84619" width="1.61538" height="1.61538" transform="rotate(90 12.9231 4.84619)" fill="black"/>
    <rect x="16.1539" y="6.46143" width="1.61538" height="1.61538" transform="rotate(90 16.1539 6.46143)" fill="black"/>
    <rect x="14.5385" y="6.46143" width="1.61538" height="1.61538" transform="rotate(90 14.5385 6.46143)" fill="black"/>
    <rect x="12.9231" y="6.46143" width="1.61538" height="1.61538" transform="rotate(90 12.9231 6.46143)" fill="black"/>
    <rect x="11.3077" y="6.46143" width="1.61538" height="1.61538" transform="rotate(90 11.3077 6.46143)" fill="black"/>
    <rect x="9.69232" y="6.46143" width="1.61538" height="1.61538" transform="rotate(90 9.69232 6.46143)" fill="black"/>
    <rect x="8.0769" y="6.46143" width="1.61538" height="1.61538" transform="rotate(90 8.0769 6.46143)" fill="black"/>
    <rect x="6.46155" y="6.46143" width="1.61538" height="1.61538" transform="rotate(90 6.46155 6.46143)" fill="black"/>
    <rect x="4.84613" y="6.46143" width="1.61538" height="1.61538" transform="rotate(90 4.84613 6.46143)" fill="black"/>
    <rect x="17.7692" y="11.3076" width="1.61538" height="1.61538" transform="rotate(90 17.7692 11.3076)" fill="black"/>
    <rect x="16.1539" y="11.3076" width="1.61538" height="1.61538" transform="rotate(90 16.1539 11.3076)" fill="black"/>
    <rect x="14.5385" y="11.3076" width="1.61538" height="1.61538" transform="rotate(90 14.5385 11.3076)" fill="black"/>
    <rect x="12.9231" y="11.3076" width="1.61538" height="1.61538" transform="rotate(90 12.9231 11.3076)" fill="black"/>
    <rect x="11.3077" y="11.3076" width="1.61538" height="1.61538" transform="rotate(90 11.3077 11.3076)" fill="black"/>
    <rect x="9.69232" y="11.3076" width="1.61538" height="1.61538" transform="rotate(90 9.69232 11.3076)" fill="black"/>
    <rect x="8.0769" y="11.3076" width="1.61538" height="1.61538" transform="rotate(90 8.0769 11.3076)" fill="black"/>
    <rect x="6.46155" y="11.3076" width="1.61538" height="1.61538" transform="rotate(90 6.46155 11.3076)" fill="black"/>
    <rect x="4.84613" y="11.3076" width="1.61538" height="1.61538" transform="rotate(90 4.84613 11.3076)" fill="black"/>
    <rect x="17.7692" y="12.9229" width="1.61538" height="1.61538" transform="rotate(90 17.7692 12.9229)" fill="black"/>
    <rect x="4.84613" y="12.9229" width="1.61538" height="1.61538" transform="rotate(90 4.84613 12.9229)" fill="black"/>
    <rect x="17.7692" y="14.5386" width="1.61538" height="1.61538" transform="rotate(90 17.7692 14.5386)" fill="black"/>
    <rect x="4.84613" y="14.5386" width="1.61538" height="1.61538" transform="rotate(90 4.84613 14.5386)" fill="black"/>
    <rect x="17.7692" y="16.1538" width="1.61538" height="1.61538" transform="rotate(90 17.7692 16.1538)" fill="black"/>
    <rect x="4.84613" y="16.1538" width="1.61538" height="1.61538" transform="rotate(90 4.84613 16.1538)" fill="black"/>
    <rect x="4.84613" y="17.769" width="1.61538" height="1.61538" transform="rotate(90 4.84613 17.769)" fill="black"/>
    <rect x="17.7692" y="17.769" width="1.61538" height="1.61538" transform="rotate(90 17.7692 17.769)" fill="black"/>
    <rect x="19.3846" y="19.3848" width="1.61538" height="1.61538" transform="rotate(90 19.3846 19.3848)" fill="black"/>
    <rect x="17.7692" y="19.3848" width="1.61538" height="1.61538" transform="rotate(90 17.7692 19.3848)" fill="black"/>
    <rect x="16.1539" y="19.3848" width="1.61538" height="1.61538" transform="rotate(90 16.1539 19.3848)" fill="black"/>
    <rect x="14.5385" y="19.3848" width="1.61538" height="1.61538" transform="rotate(90 14.5385 19.3848)" fill="black"/>
    <rect x="12.9231" y="19.3848" width="1.61538" height="1.61538" transform="rotate(90 12.9231 19.3848)" fill="black"/>
    <rect x="11.3077" y="19.3848" width="1.61538" height="1.61538" transform="rotate(90 11.3077 19.3848)" fill="black"/>
    <rect x="9.69232" y="19.3848" width="1.61538" height="1.61538" transform="rotate(90 9.69232 19.3848)" fill="black"/>
    <rect x="8.0769" y="19.3848" width="1.61538" height="1.61538" transform="rotate(90 8.0769 19.3848)" fill="black"/>
    <rect x="6.46155" y="19.3848" width="1.61538" height="1.61538" transform="rotate(90 6.46155 19.3848)" fill="black"/>
    <rect x="4.84613" y="19.3848" width="1.61538" height="1.61538" transform="rotate(90 4.84613 19.3848)" fill="black"/>
    <rect x="3.23077" y="19.3848" width="1.61538" height="1.61538" transform="rotate(90 3.23077 19.3848)" fill="black"/>
    <rect x="21" y="21" width="1.61538" height="1.61538" transform="rotate(-180 21 21)" fill="black"/>
    <rect x="21" y="19.3848" width="1.61538" height="1.61538" transform="rotate(-180 21 19.3848)" fill="black"/>
    <rect x="21" y="17.769" width="1.61538" height="1.61538" transform="rotate(-180 21 17.769)" fill="black"/>
    <rect x="21" y="16.1538" width="1.61538" height="1.61538" transform="rotate(-180 21 16.1538)" fill="black"/>
    <rect x="21" y="14.5386" width="1.61538" height="1.61538" transform="rotate(-180 21 14.5386)" fill="black"/>
    <rect x="21" y="12.9229" width="1.61538" height="1.61538" transform="rotate(-180 21 12.9229)" fill="black"/>
    <rect x="21" y="11.3076" width="1.61538" height="1.61538" transform="rotate(-180 21 11.3076)" fill="black"/>
    <rect x="21" y="9.69238" width="1.61538" height="1.61538" transform="rotate(-180 21 9.69238)" fill="black"/>
    <rect x="21" y="8.07715" width="1.61538" height="1.61538" transform="rotate(-180 21 8.07715)" fill="black"/>
    <rect x="21" y="6.46143" width="1.61538" height="1.61538" transform="rotate(-180 21 6.46143)" fill="black"/>
    <rect x="21" y="4.84619" width="1.61538" height="1.61538" transform="rotate(-180 21 4.84619)" fill="black"/>
  </symbol>

  <symbol id="heart" stroke="currentColor" fill="currentColor">
    <g class="heart">
            <path class="contour" d="M12 6H9V9H12V6ZM15 6H12V9H15V6ZM9 9H6V12H9V9ZM9 12H6V15H9V12ZM9 15H6V18H9V15ZM18 6H15V9H18V6ZM12 18H9V21H12V18ZM15 21H12V24H15V21ZM18 24H15V27H18V24ZM27 6H30V9H27V6ZM24 6H27V9H24V6ZM30 9H33V12H30V9ZM30 12H33V15H30V12ZM30 15H33V18H30V15ZM21 6H24V9H21V6ZM27 18H30V21H27V18ZM24 21H27V24H24V21ZM21 24H24V27H21V24ZM21 27H18V30H21V27ZM21 9H18V12H21V9Z" fill="black"/>
            <path class="main-body" d="M12 9H9V12H12V9ZM15 12H12V15H15V12ZM18 9H15V12H18V9ZM12 15H9V18H12V15ZM15 15H12V18H15V15ZM15 18H12V21H15V18ZM18 12H15V15H18V12ZM18 21H15V24H18V21ZM18 18H15V21H18V18ZM27 9H30V12H27V9ZM24 9H27V12H24V9ZM27 12H30V15H27V12ZM24 12H27V15H24V12ZM21 9H24V12H21V9ZM27 15H30V18H27V15ZM24 15H27V18H24V15ZM24 18H27V21H24V18ZM21 12H24V15H21V12ZM21 21H24V24H21V21ZM21 18H24V21H21V18ZM21 21H18V24H21V21ZM21 24H18V27H21V24Z" fill="none"/>
            <path class="core" d="M18 15H15V18H18V15ZM21 15H24V18H21V15ZM21 15H18V18H21V15ZM21 12H18V15H21V12ZM21 18H18V21H21V18Z" fill="orange"/>
        </g>
        <path class="sparks" d="M36 13H39V16H36V13ZM27 27H30V30H27V27ZM18 33H21V36H18V33ZM9 27H12V30H9V27ZM24 0H27V3H24V0ZM33 3H36V6H33V3ZM3 3H6V6H3V3ZM12 0H15V3H12V0ZM0 13H3V16H0V13Z" fill="none"/>
  </symbol>
</svg> 



